<svg id="Grupo_36" data-name="Grupo 36" xmlns="http://www.w3.org/2000/svg" xmlns:xlink="http://www.w3.org/1999/xlink" width="81.76" height="46.04" viewBox="0 0 81.76 46.04">
  <defs>
    <clipPath id="clip-path">
      <rect id="Rectángulo_40" data-name="Rectángulo 40" width="81.76" height="46.04" fill="#fff"/>
    </clipPath>
  </defs>
  <g id="Grupo_31" data-name="Grupo 31" clip-path="url(#clip-path)">
    <path id="Trazado_7" data-name="Trazado 7" d="M126.361,94.765h3.555c0,.923.562,1.507,1.974,1.507s1.981-.585,1.981-1.507c0-.967-1.125-1.192-2.474-1.439-2.1-.382-4.771-.878-4.771-4.455,0-2.79,2.115-4.77,5.288-4.77,3.084,0,5.181,1.867,5.288,4.658h-3.414c-.023-.855-.562-1.529-1.823-1.529-1.3,0-1.822.74-1.822,1.507,0,.967,1.125,1.192,2.5,1.439,2.114.382,4.792.878,4.792,4.455,0,2.925-2.205,4.77-5.536,4.77-3.285,0-5.467-1.777-5.535-4.635" transform="translate(-110.775 -73.727)" fill="#fff"/>
    <path id="Trazado_8" data-name="Trazado 8" d="M226.391,90.557c0-4.005,2.273-6.457,6.457-6.457,4.209,0,6.5,2.452,6.5,6.457v8.55h-3.645V94.922h-5.76v4.185h-3.555Zm9.315,1.215V90.557c0-2.025-.877-3.084-2.88-3.084-1.98,0-2.88,1.057-2.88,3.084v1.215Z" transform="translate(-198.467 -73.727)" fill="#fff"/>
    <path id="Trazado_9" data-name="Trazado 9" d="M344.661,86.47h3.645V97.81h6.952v3.375h-10.6Z" transform="translate(-302.149 -75.804)" fill="#fff"/>
    <path id="Trazado_10" data-name="Trazado 10" d="M439.151,95.293V86.47H442.8v8.823c0,1.8.833,2.812,2.633,2.812,1.844,0,2.677-.987,2.677-2.812V86.47h3.555v8.823c0,3.779-2.228,6.187-6.209,6.187-4.051,0-6.3-2.384-6.3-6.187" transform="translate(-384.983 -75.804)" fill="#fff"/>
    <path id="Trazado_11" data-name="Trazado 11" d="M556.841,86.47h5.2c5.174,0,7.876,2.948,7.876,7.358s-2.7,7.358-7.876,7.358h-5.2Zm5.2,11.34c2.948,0,4.185-1.531,4.185-3.983s-1.233-3.983-4.185-3.983h-1.555V97.81Z" transform="translate(-488.157 -75.804)" fill="#fff"/>
    <path id="Trazado_12" data-name="Trazado 12" d="M.766,86.351c19.093,26.591,47.864,28.9,78.118,17.27.941-.361,1.895-.078,1.073.893-7.676,9.076-20.473,16.467-34.283,16.96-25.413.9-40.1-17.488-45.66-35.107-.111-.353.48-.4.752-.016" transform="translate(0 -75.466)" fill="#fff"/>
    <path id="Trazado_13" data-name="Trazado 13" d="M6.691,4.317A4.216,4.216,0,0,1,11.11,0a4.229,4.229,0,0,1,4.216,2.921H13.066A2.2,2.2,0,0,0,11.11,1.9,2.273,2.273,0,0,0,8.767,4.318,2.269,2.269,0,0,0,11.11,6.731,2.182,2.182,0,0,0,13.269,5.5H10.6V3.848h4.914v.9A4.216,4.216,0,0,1,11.11,8.634,4.216,4.216,0,0,1,6.691,4.317" transform="translate(-5.866)" fill="#fff"/>
    <path id="Trazado_14" data-name="Trazado 14" d="M84.671,1.34h6.134V3.245H86.729V4.6h3.34v1.65h-3.34V7.74h4.077V9.646H84.671Z" transform="translate(-74.227 -1.174)" fill="#fff"/>
    <path id="Trazado_15" data-name="Trazado 15" d="M141.911,3.492a3.557,3.557,0,0,1,7.112,0V8.47h-2.057V3.492c0-1.015-.484-1.587-1.5-1.587s-1.5.572-1.5,1.587V8.47h-2.057Z" transform="translate(-124.407)" fill="#fff"/>
    <path id="Trazado_16" data-name="Trazado 16" d="M207.691,1.34h6.134V3.245h-4.077V4.6h3.34v1.65h-3.34V7.74h4.077V9.646h-6.134Z" transform="translate(-182.073 -1.174)" fill="#fff"/>
    <path id="Trazado_17" data-name="Trazado 17" d="M265.711,1.34h3.366c2.2,0,3.175,1.194,3.175,2.844A2.573,2.573,0,0,1,270.69,6.75l1.865,2.9h-2.439l-1.473-2.6h-.876v2.6h-2.057Zm3.39,3.8c.826,0,1.068-.407,1.068-.953s-.247-.939-1.068-.939h-1.332V5.138Z" transform="translate(-232.937 -1.175)" fill="#fff"/>
    <path id="Trazado_18" data-name="Trazado 18" d="M326.391,3.645a3.658,3.658,0,0,1,7.316,0V8.471h-2.06V6.108H328.4V8.471h-2.007Zm5.256.686V3.645c0-1.143-.493-1.739-1.626-1.739s-1.626.6-1.626,1.739v.686Z" transform="translate(-286.132 0)" fill="#fff"/>
    <path id="Trazado_19" data-name="Trazado 19" d="M394.591,1.34h2.057v6.4h3.925V9.646h-5.982Z" transform="translate(-345.92 -1.174)" fill="#fff"/>
    <path id="Trazado_20" data-name="Trazado 20" d="M451.921,1.57h1.267a1.693,1.693,0,0,1,1.9,1.785,1.694,1.694,0,0,1-1.9,1.786h-1.267ZM453.188,4.5a1.049,1.049,0,0,0,1.2-1.141,1.045,1.045,0,0,0-1.2-1.135h-.569V4.5Z" transform="translate(-396.178 -1.376)" fill="#fff"/>
    <path id="Trazado_21" data-name="Trazado 21" d="M481.361,1.57h2.631v.649h-1.933v.8h1.617v.623h-1.617V4.5h1.933v.645h-2.631Z" transform="translate(-421.987 -1.376)" fill="#fff"/>
    <path id="Trazado_22" data-name="Trazado 22" d="M451.911,41.77h.682c.006.284.218.475.644.475s.644-.191.644-.475c0-.311-.332-.37-.72-.443-.54-.1-1.179-.213-1.179-1.042a1.271,1.271,0,0,1,2.522-.027h-.66c-.006-.274-.208-.47-.6-.47s-.586.216-.586.475c0,.311.333.37.722.443.539.1,1.184.212,1.184,1.042,0,.693-.53,1.125-1.327,1.125s-1.319-.421-1.33-1.1" transform="translate(-396.17 -34.33)" fill="#fff"/>
    <path id="Trazado_23" data-name="Trazado 23" d="M481.361,39.73h2.631v.65h-1.933v.8h1.617V41.8h-1.617v.857h1.933V43.3h-2.631Z" transform="translate(-421.987 -34.829)" fill="#fff"/>
    <path id="Trazado_24" data-name="Trazado 24" d="M505.921,41.016a1.917,1.917,0,0,1,3.7-.65h-.776a1.126,1.126,0,0,0-1.02-.556,1.209,1.209,0,0,0,0,2.418,1.117,1.117,0,0,0,1.14-.74H507.6v-.62h2.113V41.2a1.9,1.9,0,0,1-3.794-.18" transform="translate(-443.518 -34.33)" fill="#fff"/>
    <path id="Trazado_25" data-name="Trazado 25" d="M540.681,41.881V39.73h.7v2.151a.816.816,0,1,0,1.632,0V39.73h.683v2.151a1.371,1.371,0,0,1-1.5,1.491,1.386,1.386,0,0,1-1.518-1.491" transform="translate(-473.99 -34.829)" fill="#fff"/>
    <path id="Trazado_26" data-name="Trazado 26" d="M570,39.73h1.5c.905,0,1.3.493,1.3,1.179a1.074,1.074,0,0,1-.747,1.11l.878,1.283H572.1l-.759-1.206H570.7V43.3H570Zm1.506,1.715c.443,0,.591-.228.591-.535s-.144-.529-.587-.529H570.7v1.064Z" transform="translate(-499.694 -34.829)" fill="#fff"/>
    <path id="Trazado_27" data-name="Trazado 27" d="M595.791,41.016a1.9,1.9,0,1,1,1.9,1.856,1.812,1.812,0,0,1-1.9-1.856m3.09,0a1.19,1.19,0,1,0-1.19,1.208,1.148,1.148,0,0,0,1.19-1.208" transform="translate(-522.303 -34.33)" fill="#fff"/>
    <path id="Trazado_28" data-name="Trazado 28" d="M629.251,41.77h.682c.006.284.218.475.644.475s.644-.191.644-.475c0-.311-.332-.37-.72-.443-.54-.1-1.179-.213-1.179-1.042a1.271,1.271,0,0,1,2.522-.027h-.66c0-.274-.208-.47-.6-.47S630,40,630,40.263c0,.311.333.37.722.443.54.1,1.184.212,1.184,1.042,0,.693-.53,1.125-1.327,1.125s-1.31-.421-1.326-1.1" transform="translate(-551.635 -34.33)" fill="#fff"/>
  </g>
</svg>
