<svg id="Grupo_1" data-name="Grupo 1" xmlns="http://www.w3.org/2000/svg" xmlns:xlink="http://www.w3.org/1999/xlink" width="114.29" height="64.004" viewBox="0 0 114.29 64.004">
  <defs>
    <clipPath id="clip-path">
      <rect id="Rectángulo_38" data-name="Rectángulo 38" width="114.29" height="64.004" fill="none"/>
    </clipPath>
  </defs>
  <g id="Grupo_19" data-name="Grupo 19" clip-path="url(#clip-path)">
    <path id="Trazado_2" data-name="Trazado 2" d="M113.693,33.363c-.322.011-.485.261-.674.545l-.074.112a43.331,43.331,0,0,1-4.979,6.889c-2.241,2.445-3.283,4.085-5.935,3.807-.307-.032-1.123-.436-1.276-1.983a2.9,2.9,0,0,1,.605-2.365c.278-.29.278-.29,1.414-.849l.092-.044c.55-.25,1.062-.488,1.524-.706a9.08,9.08,0,0,0,3.8-2.476,7.259,7.259,0,0,0,1.948-5.844,4.5,4.5,0,0,0-4.579-3.853c-2.238,0-5.036,1.785-7.136,4.276a13.514,13.514,0,0,0-3.342,8.79c-1.543.635-3.458,1.3-4.238.653-.729-.6.441-2.484.855-3.176.763-1.276,1.813-2.587,1.654-4.229a2.783,2.783,0,0,0-.991-1.715,2.749,2.749,0,0,0-1.991-.853c-.844.04-1.47,1.029-2.14,2.213-.679,1.137-2.414,3.861-4.178,6.329-3.018,4.222-3.809,4.467-3.936,4.473-.025,0-.031,0-.036-.009a.327.327,0,0,1-.057-.181c-.2-2.04,3.859-10.9,9.337-13.612a9.9,9.9,0,0,1,2.628-.862c.743-.153,1.385-.285,1.314-1.013a3.1,3.1,0,0,0-1.241-1.789,3.979,3.979,0,0,0-2.568-.935,15.663,15.663,0,0,0-10.386,5.3h0l0,.005-.164.178a15.048,15.048,0,0,0-1.08,1.3,16.9,16.9,0,0,0-2.788,5.3c-1.313,3.326-2.119,6.378-4.262,7.659-.041.024-.6.369-.91-.132-1.253-2.031.986-4.346,1.876-6.461.806-1.918,1.5-3.574,1.234-4.848A4.41,4.41,0,0,0,71.4,30.678a3.533,3.533,0,0,0-2.745-.766c-1.827.3-4.244,4.548-5.526,6.81.162-.554,1.094-5.241.834-6.47-.446-2.114-2.3-3.75-4.248-3.428-2.321.38-5.357,5.82-7.409,10.1a10.826,10.826,0,0,0,.306-3.551c-.335-1.589-2.034-3.1-3.287-2.844-1.2.247-.847.83-.855,1.8-.11,1.032-.237,1.991-.383,2.889-.3,1.395-.725,2.846-1.146,4.269-.155.524-.309,1.043-.454,1.553a9.045,9.045,0,0,1-6.734,5.447,1.788,1.788,0,0,1-2-1.758c-.087-2.031-.249-5.188,3.681-17.084a41.3,41.3,0,0,1,5.769-.822c1.576-.23,1.316-1.374.562-1.721-.687-.316-2.423-.665-5.459-.064q.34-1,.682-2.006C45.84,14.656,48.533,6.742,47.814,3.19A3.857,3.857,0,0,0,45.947.732,4.266,4.266,0,0,0,42.693.113C37.7,1.637,29,13.206,17.526,33.578l-.59,1.105a91.744,91.744,0,0,0-13.216,7.9c-5.2,3.71-3.549,5.773-3.185,6.051,1.1.841,3.461-.008,4.692-1.117a82.961,82.961,0,0,1,8.517-6.853c-.183.357-.33.72-.53,1.038-6.056,9.591-7.1,17.842-3.4,17.842,1.753,0,2.554-.138,4.027-5.329,1.853-6.533,3.591-9.922,8.511-18.842a97.688,97.688,0,0,1,11.424-5.138c-1.541,5.448-1.947,9.8-1.242,13.275a8.492,8.492,0,0,0,3.124,5.219,7.08,7.08,0,0,0,5.859.366,10.233,10.233,0,0,0,4.089-2.5c.018.162.04.321.072.474.254,1.2.813,2.625,2.066,3.068a3.343,3.343,0,0,0,3.827-1.051c.969-1.105.288-3.053,1.5-6.143,2.478-6.3,5.234-11.923,5.97-12.159a.312.312,0,0,1,.151.023c.046.021.059.043.064.069.142.781-.712,2.408-1.268,4.253-2.075,6.878.633,10.575,1.8,10.727,1.062.137,1.772.437,2.659-1.845l.015-.035c3.614-8.16,5.289-10.516,5.707-10.62l.013,0a.056.056,0,0,1,.005.015,8.832,8.832,0,0,1-1.057,3.082c-1.1,2.47-2.469,5.544-1.944,8.031a3.836,3.836,0,0,0,2.094,2.558,5.85,5.85,0,0,0,3.593.56c1.346-.22,2.79-1.45,4.353-3.719a4.975,4.975,0,0,0,4.394,3.084,3.188,3.188,0,0,0,.359,0c3.491-.289,6.049-4.078,7.593-7.133a3.362,3.362,0,0,0,.659,3.253c.962,1.013,3.93.442,7.22-.649a7.06,7.06,0,0,0,2.519,3.677,8.03,8.03,0,0,0,4.449,1.548,5.81,5.81,0,0,0,.894,0c5.87-.614,9.444-9.116,10.6-12.626.273-.536.754-1.709-.237-1.674m-79.019-6c-3.49,1.161-6.88,2.45-10.332,3.928C32.311,15.429,41.953,2.73,44.012,2.1A.11.11,0,0,1,44.05,2.1a.091.091,0,0,1,.044.014.213.213,0,0,1,.085.141c.344,1.7-1.644,6.188-3.945,11.387-1.857,4.2-3.96,8.944-5.56,13.729m54.481,8.905a2.373,2.373,0,0,1,.141-.311,2.576,2.576,0,0,1-.141.311m17.7-6.187c1.111.739,1.084,3.376-2.426,5.594-.042.023-1.152.612-2.759,1.343-.1.039-.2.078-.308.116.227-4.18,4.123-7.965,5.494-7.053" transform="translate(0 0)" fill="#61c4f3"/>
    <path id="Trazado_3" data-name="Trazado 3" d="M119.987,281.741c1.055-1.934,23.479-6.025,34.159-7.089,11.7-1.423,37.5-1.454,42.923.772,1.707.659,2.309,1.5,2.113,1.812-.341.436-.956.356-2.381.212-7.859-1.2-31.873-.814-41.813.694-18.479,1.736-31.945,6.61-33.514,6.3a2.067,2.067,0,0,1-1.487-2.705" transform="translate(-96.532 -220.456)" fill="#61c4f3"/>
    <path id="Trazado_4" data-name="Trazado 4" d="M338.594,113.727c-.031-.084-.067-.171-.107-.261-.067-.149-.146-.3-.23-.459q-.06-.109-.122-.218c-.081-.141-.165-.279-.247-.409-.122-.194-.239-.371-.336-.514-.068-.1-.127-.184-.17-.246l-.038-.054-.045-.063-.087.117c-.059.081-.145.2-.245.342l-.006.008c-.078.112-.164.239-.253.374-.064.1-.129.2-.194.3s-.11.181-.163.273l-.057.1-.037.066c-.067.122-.129.243-.184.36a3.151,3.151,0,0,0-.155.388,1.22,1.22,0,0,0-.061.31c0,.027,0,.055,0,.082a1.416,1.416,0,0,0,.031.269l.008.035c.008.033.017.066.027.1a1.43,1.43,0,0,0,.421.643q.044.038.091.073c.023.017.047.034.071.049a1.469,1.469,0,0,0,.147.083,1.413,1.413,0,0,0,.314.111,1.435,1.435,0,0,0,.262.035,1.428,1.428,0,0,0,1.318-.766q.028-.053.051-.108a1.464,1.464,0,0,0,.055-.158,1.435,1.435,0,0,0,.054-.34,1.474,1.474,0,0,0-.112-.526" transform="translate(-270.564 -89.828)" fill="#d04461"/>
    <path id="Trazado_5" data-name="Trazado 5" d="M307.211,24.846a21.932,21.932,0,0,1-2.844,3.115,22.37,22.37,0,0,1-1.985,1.44,1.73,1.73,0,0,0-.927,1.511,1.641,1.641,0,0,0,1.373,1.541,13.148,13.148,0,0,0,6.919-2.193s1.619-1.146,2.478.273a1.956,1.956,0,0,1-.185,2.727,8.964,8.964,0,0,1-4.216,2.409,6.893,6.893,0,0,1-3.449.155c-.294-.281-.592-.553-.894-.824-.857-.769-1.724-1.527-2.556-2.322a7.738,7.738,0,0,1-1.991-2.85,5.509,5.509,0,0,1-.148-4.011,4.519,4.519,0,0,1,3.83-3.06,4.57,4.57,0,0,1,4.507,2c.016.021.029.045.047.066s.018.01.041.023" transform="translate(-240.449 -18.294)" fill="#61c4f3"/>
    <path id="Trazado_6" data-name="Trazado 6" d="M327.423,24.711a4.729,4.729,0,0,1,.816,3.263,6.9,6.9,0,0,1-2.187,4.311c-.89.89-1.839,1.722-2.77,2.571a20.9,20.9,0,0,0-3.292,3.6c-.14.206-.279.413-.425.631-.3-.405-.575-.795-.869-1.171a19.289,19.289,0,0,0-1.971-2.133,6.253,6.253,0,0,0,3.288-.282,7.4,7.4,0,0,0,4.116-2.47c1.39-1.548.446-2.538.446-2.538-.965-1.312-2.478-.273-2.478-.273a13.148,13.148,0,0,1-6.919,2.193,1.641,1.641,0,0,1-1.373-1.541,1.73,1.73,0,0,1,.927-1.511,22.382,22.382,0,0,0,1.985-1.44,21.932,21.932,0,0,0,2.844-3.115l.16-.214a4.718,4.718,0,0,1,7.7.121" transform="translate(-252.799 -18.253)" fill="#d04461"/>
  </g>
</svg>
