<svg id="Grupo_134" data-name="Grupo 134" xmlns="http://www.w3.org/2000/svg" xmlns:xlink="http://www.w3.org/1999/xlink" width="180" height="100.803" viewBox="0 0 180 100.803">
  <defs>
    <clipPath id="clip-path">
      <rect id="Rectángulo_79" data-name="Rectángulo 79" width="180" height="100.803" fill="none"/>
    </clipPath>
  </defs>
  <g id="Grupo_133" data-name="Grupo 133" clip-path="url(#clip-path)">
    <path id="Trazado_63" data-name="Trazado 63" d="M179.06,52.546c-.507.017-.764.411-1.062.858l-.116.176a68.242,68.242,0,0,1-7.841,10.85c-3.529,3.851-5.17,6.434-9.347,6-.484-.051-1.768-.686-2.009-3.122a4.566,4.566,0,0,1,.953-3.724c.438-.457.438-.457,2.227-1.338l.145-.069c.867-.393,1.673-.768,2.4-1.112,2.553-1.134,4.126-1.776,5.984-3.9a11.433,11.433,0,0,0,3.068-9.2,7.09,7.09,0,0,0-7.212-6.069c-3.524,0-7.932,2.812-11.239,6.734a21.283,21.283,0,0,0-5.263,13.844c-2.43,1-5.447,2.046-6.674,1.028-1.148-.953.694-3.912,1.346-5,1.2-2.01,2.856-4.074,2.605-6.661a4.382,4.382,0,0,0-1.561-2.7,4.33,4.33,0,0,0-3.136-1.344c-1.329.063-2.315,1.621-3.37,3.485-1.069,1.791-3.8,6.081-6.581,9.968-4.753,6.65-6,7.035-6.2,7.044-.04,0-.049-.007-.057-.015a.514.514,0,0,1-.09-.285c-.311-3.213,6.077-17.169,14.706-21.437a15.593,15.593,0,0,1,4.139-1.357c1.17-.241,2.181-.449,2.069-1.6a4.888,4.888,0,0,0-1.955-2.817,6.266,6.266,0,0,0-4.044-1.473c-5.735.275-11.654,3.305-16.358,8.347h0l-.007.008c-.087.093-.173.186-.259.281a23.7,23.7,0,0,0-1.7,2.041,26.622,26.622,0,0,0-4.391,8.342c-2.068,5.239-3.337,10.045-6.713,12.063-.065.039-.946.581-1.433-.209-1.973-3.2,1.554-6.844,2.954-10.175,1.27-3.02,2.366-5.629,1.943-7.635a6.945,6.945,0,0,0-2.53-4.05,5.564,5.564,0,0,0-4.323-1.206c-2.877.471-6.685,7.162-8.7,10.726.254-.872,1.723-8.254,1.314-10.19-.7-3.329-3.621-5.906-6.69-5.4-3.655.6-8.437,9.166-11.669,15.906a17.05,17.05,0,0,0,.482-5.592c-.528-2.5-3.2-4.887-5.176-4.479-1.883.388-1.334,1.307-1.347,2.839-.173,1.625-.373,3.136-.6,4.55-.468,2.2-1.142,4.482-1.805,6.723-.244.826-.486,1.643-.714,2.446-2.2,4.842-5.53,7.369-10.606,8.578a2.816,2.816,0,0,1-3.152-2.769c-.137-3.2-.392-8.171,5.8-26.906a65.051,65.051,0,0,1,9.087-1.294c2.482-.363,2.073-2.164.885-2.711-1.082-.5-3.817-1.047-8.6-.1q.536-1.58,1.074-3.159C72.2,23.082,76.437,10.619,75.3,5.025a6.075,6.075,0,0,0-2.939-3.871A6.719,6.719,0,0,0,67.24.179C59.37,2.578,45.666,20.8,27.6,52.883l-.929,1.741A144.492,144.492,0,0,0,5.86,67.065C-2.325,72.909.27,76.157.845,76.595c1.739,1.325,5.45-.012,7.389-1.759A130.658,130.658,0,0,1,21.648,64.042c-.287.563-.519,1.134-.835,1.635-9.538,15.105-11.176,28.1-5.347,28.1,2.761,0,4.023-.217,6.342-8.393,2.918-10.289,5.655-15.626,13.4-29.675A153.852,153.852,0,0,1,53.2,47.617c-2.427,8.58-3.067,15.427-1.956,20.907.679,3.352,2.678,6.842,4.921,8.22,2.412,1.482,5.6,1.682,9.228.577a16.117,16.117,0,0,0,6.44-3.934c.028.255.063.506.113.746.4,1.893,1.28,4.134,3.253,4.831a5.266,5.266,0,0,0,6.027-1.655c1.526-1.741.454-4.809,2.368-9.674,3.9-9.921,8.243-18.778,9.4-19.15a.492.492,0,0,1,.239.036c.073.032.092.067.1.109.223,1.23-1.121,3.792-2,6.7-3.268,10.832,1,16.656,2.838,16.894,1.673.216,2.79.688,4.187-2.906l.024-.055c5.691-12.852,8.33-16.562,8.989-16.727l.021,0a.089.089,0,0,1,.008.024c.16.757-.727,2.747-1.665,4.854-1.732,3.89-3.888,8.731-3.062,12.648a6.042,6.042,0,0,0,3.3,4.029,9.213,9.213,0,0,0,5.659.882c2.121-.347,4.394-2.283,6.856-5.857a7.836,7.836,0,0,0,6.921,4.858,5.02,5.02,0,0,0,.565,0c5.5-.455,9.527-6.422,11.959-11.234a5.3,5.3,0,0,0,1.039,5.123c1.516,1.595,6.189.7,11.371-1.023a11.119,11.119,0,0,0,3.968,5.791,12.646,12.646,0,0,0,7.007,2.439,9.152,9.152,0,0,0,1.407,0c9.246-.968,14.874-14.358,16.7-19.886.43-.844,1.187-2.691-.373-2.636M54.61,43.1c-5.5,1.829-10.836,3.859-16.273,6.187C50.888,24.3,66.074,4.3,69.317,3.31a.173.173,0,0,1,.059-.008.143.143,0,0,1,.07.023.336.336,0,0,1,.133.222c.542,2.675-2.589,9.746-6.213,17.933C60.441,28.087,57.13,35.566,54.61,43.1m85.805,14.025a3.739,3.739,0,0,1,.221-.49,4.054,4.054,0,0,1-.221.49m27.876-9.744c1.749,1.164,1.708,5.316-3.821,8.81-.066.036-1.815.964-4.346,2.115-.162.061-.319.123-.485.183.358-6.583,6.493-12.544,8.652-11.108" transform="translate(0 0)" fill="#fff"/>
    <path id="Trazado_64" data-name="Trazado 64" d="M120.079,286.39c1.662-3.046,36.979-9.49,53.8-11.166,18.423-2.241,59.063-2.29,67.6,1.216,2.688,1.038,3.636,2.361,3.328,2.854-.537.687-1.506.56-3.751.335-12.377-1.885-50.2-1.281-65.854,1.092-29.1,2.734-50.311,10.41-52.782,9.929-2.028-.477-3.121-2.894-2.341-4.26" transform="translate(-83.139 -189.869)" fill="#fff"/>
    <path id="Trazado_65" data-name="Trazado 65" d="M339.981,117.1c-.048-.132-.105-.269-.169-.41-.106-.235-.23-.479-.362-.723-.062-.115-.127-.229-.192-.343-.128-.222-.26-.439-.389-.644-.192-.306-.376-.584-.529-.809-.107-.158-.2-.29-.268-.387l-.061-.085-.071-.1s-.051.067-.137.184-.228.313-.386.539l-.009.013c-.123.176-.258.376-.4.589-.1.153-.2.314-.3.478-.087.141-.174.285-.257.429q-.046.079-.09.159l-.058.1c-.106.192-.2.383-.29.568a4.946,4.946,0,0,0-.243.611,1.923,1.923,0,0,0-.1.488c0,.043,0,.086,0,.129a2.229,2.229,0,0,0,.049.424c0,.018.009.036.013.055q.019.079.043.155a2.252,2.252,0,0,0,.664,1.012q.069.061.144.116c.037.027.074.053.112.078a2.3,2.3,0,0,0,.231.131,2.224,2.224,0,0,0,.494.174,2.258,2.258,0,0,0,.413.054,2.249,2.249,0,0,0,2.076-1.206q.044-.083.08-.171a2.251,2.251,0,0,0,.173-.784,2.324,2.324,0,0,0-.177-.829" transform="translate(-232.895 -78.818)" fill="#fff"/>
    <path id="Trazado_66" data-name="Trazado 66" d="M323.781,27.147a7.431,7.431,0,0,0-12.13-.19l-.062.083a7.8,7.8,0,0,0-7.466-3.341,7.453,7.453,0,0,0-6.278,5.014,8.924,8.924,0,0,0,.232,6.533,12.463,12.463,0,0,0,3.211,4.6c.808.772,4.26,3.423,6.567,5.637a27.643,27.643,0,0,1,2.182,2.456c.463.592.9,1.206,1.368,1.844.23-.344.448-.669.669-.994a32.9,32.9,0,0,1,5.185-5.666c1.466-1.338,2.96-2.647,4.362-4.049a10.875,10.875,0,0,0,3.445-6.789,7.447,7.447,0,0,0-1.285-5.139m-25.13,7.884a8.343,8.343,0,0,1-.234-6.1,6.79,6.79,0,0,1,5.785-4.625,8.217,8.217,0,0,1,1.069-.072,7.318,7.318,0,0,1,5.89,3.254l.029.039.017.012a31.046,31.046,0,0,1-4.287,4.66,35.245,35.245,0,0,1-3.126,2.267,2.724,2.724,0,0,0-1.46,2.381,2.584,2.584,0,0,0,2.163,2.427,20.706,20.706,0,0,0,10.9-3.454s2.383-1.637,3.9.43c0,0,1.486,1.56-.7,4-1.8,2-3.16,2.919-6.482,3.89a10.938,10.938,0,0,1-4.247.578c-2.138-1.828-5.44-4.628-6.153-5.308a11.713,11.713,0,0,1-3.061-4.375" transform="translate(-206.297 -16.394)" fill="#fff"/>
  </g>
</svg>
