<svg xmlns="http://www.w3.org/2000/svg" xmlns:xlink="http://www.w3.org/1999/xlink" width="111" height="112" viewBox="0 0 111 112">
  <defs>
    <clipPath id="clip-path">
      <rect id="Rectángulo_43" data-name="Rectángulo 43" width="59.821" height="59.848" fill="#f7fcff"/>
    </clipPath>
  </defs>
  <g id="Grupo_138" data-name="Grupo 138" transform="translate(-728 -1683)">
    <ellipse id="Elipse_12" data-name="Elipse 12" cx="55.5" cy="56" rx="55.5" ry="56" transform="translate(728 1683)" fill="#5fc4f3"/>
    <g id="Grupo_52" data-name="Grupo 52" transform="translate(754 1709)" clip-path="url(#clip-path)">
      <path id="Trazado_34" data-name="Trazado 34" d="M16.516,3.677c.632.191,1.572.464,2.5.76,1.284.407,2.568.813,3.839,1.259a.75.75,0,0,0,.941-.254c1.291-1.452,2.6-2.885,3.914-4.321A2.709,2.709,0,0,1,32.1,1.114c1.3,1.418,2.6,2.826,3.867,4.272a.883.883,0,0,0,1.12.264c1.884-.631,3.777-1.235,5.671-1.834A2.5,2.5,0,0,1,46.2,5.831c.412,1.9.838,3.793,1.231,5.695a.919.919,0,0,0,.843.866c1.884.356,3.753.8,5.627,1.206a2.605,2.605,0,0,1,2.073,3.612c-.6,1.894-1.2,3.788-1.838,5.67a.741.741,0,0,0,.258.934c1.471,1.3,2.914,2.641,4.367,3.966a2.7,2.7,0,0,1,0,4.291c-1.452,1.326-2.9,2.662-4.367,3.966a.741.741,0,0,0-.255.935c.634,1.883,1.23,3.778,1.84,5.669a2.568,2.568,0,0,1-2.05,3.6c-1.9.418-3.788.856-5.695,1.221a.88.88,0,0,0-.8.831c-.4,1.9-.817,3.8-1.233,5.693a2.538,2.538,0,0,1-3.449,2.035c-1.9-.575-3.789-1.2-5.672-1.828a.884.884,0,0,0-1.119.272C34.7,55.913,33.389,57.319,32.1,58.74a2.7,2.7,0,0,1-4.34.035q-2-2.171-3.961-4.371a.754.754,0,0,0-.943-.246c-1.882.636-3.775,1.238-5.666,1.846a2.531,2.531,0,0,1-3.574-2.066c-.423-1.9-.839-3.792-1.234-5.693a.842.842,0,0,0-.772-.773c-1.882-.368-3.752-.8-5.626-1.21a2.593,2.593,0,0,1-2.125-3.623q.887-2.845,1.837-5.671a.744.744,0,0,0-.261-.931c-1.451-1.293-2.882-2.608-4.318-3.917a2.724,2.724,0,0,1,0-4.393c1.454-1.324,2.9-2.652,4.37-3.962a.649.649,0,0,0,.221-.818c-.641-1.9-1.25-3.82-1.854-5.737a2.567,2.567,0,0,1,2.106-3.614c1.9-.417,3.787-.858,5.693-1.223.532-.1.643-.39.733-.81.419-1.966.836-3.933,1.276-5.9a2.591,2.591,0,0,1,2.856-1.99M29.779,57.234c.211-.227.4-.423.578-.622,1.262-1.388,2.517-2.781,3.785-4.163A2.753,2.753,0,0,1,37.3,51.6c1.209.417,2.433.791,3.651,1.181.837.268,1.674.531,2.552.809.5-2.162.973-4.23,1.451-6.3a2.73,2.73,0,0,1,2.284-2.259c.449-.086.894-.188,1.34-.286l5-1.1c-.662-2.052-1.278-4.056-1.958-6.038a2.886,2.886,0,0,1,.927-3.434c1.551-1.349,3.048-2.761,4.6-4.177-.209-.2-.387-.368-.57-.535q-2.107-1.916-4.214-3.831a2.745,2.745,0,0,1-.853-3.154c.511-1.491.971-3,1.451-4.5.177-.555.349-1.112.535-1.708-2.022-.451-3.954-.915-5.9-1.3a2.972,2.972,0,0,1-2.66-2.711c-.058-.429-.179-.85-.272-1.274-.341-1.554-.684-3.107-1.039-4.725-2.071.67-4.074,1.288-6.054,1.97a2.855,2.855,0,0,1-3.38-.9C32.8,5.745,31.366,4.208,29.916,2.617c-.212.224-.4.417-.582.616Q27.442,5.314,25.551,7.4a2.75,2.75,0,0,1-3.154.857c-1.513-.515-3.04-.989-4.562-1.477-.533-.171-1.07-.33-1.643-.506-.478,2.179-.934,4.276-1.4,6.37a2.675,2.675,0,0,1-2.224,2.229c-.761.153-1.518.329-2.276.5l-4.107.907c.681,2.076,1.313,4.075,2,6.056a2.7,2.7,0,0,1-.826,3.151c-1.428,1.286-2.842,2.586-4.268,3.874a7.317,7.317,0,0,1-.612.446c1.7,1.552,3.279,2.979,4.847,4.414a2.75,2.75,0,0,1,.86,3.155c-.381,1.1-.721,2.216-1.076,3.325-.3.948-.6,1.9-.909,2.864.167.05.252.081.339.1,1.942.423,3.882.857,5.828,1.262A2.869,2.869,0,0,1,14.852,47.4c.086.495.2.984.31,1.475.339,1.553.681,3.106,1.036,4.724,2.028-.672,3.981-1.293,5.916-1.968a2.877,2.877,0,0,1,3.388.9c1.4,1.57,2.827,3.112,4.277,4.7" transform="translate(0 0)" fill="#f7fcff"/>
      <path id="Trazado_35" data-name="Trazado 35" d="M93.122,74.965a11.259,11.259,0,0,1-1.011,1.423q-6.793,6.834-13.617,13.638c-.776.776-1.544,1.559-2.329,2.326a1.335,1.335,0,0,1-2,.181,1.316,1.316,0,0,1,.141-1.995q8.114-8.132,16.241-16.251c.427-.427.942-.77,1.521-.436a5.631,5.631,0,0,1,1.05,1.114" transform="translate(-53.474 -53.433)" fill="#f7fcff"/>
      <path id="Trazado_36" data-name="Trazado 36" d="M121.462,126.328a4.524,4.524,0,0,1-4.507-4.55,4.563,4.563,0,1,1,9.126.058,4.47,4.47,0,0,1-4.619,4.492m0-2.6a1.928,1.928,0,0,0,1.983-1.846,1.973,1.973,0,0,0-1.889-2.027,2,2,0,0,0-1.99,1.932,1.961,1.961,0,0,0,1.9,1.941" transform="translate(-84.774 -84.981)" fill="#f7fcff"/>
      <path id="Trazado_37" data-name="Trazado 37" d="M71.489,76.15a4.532,4.532,0,1,1,4.383-4.5,4.446,4.446,0,0,1-4.383,4.5m-2.035-4.485a1.886,1.886,0,0,0,1.932,1.89,1.91,1.91,0,0,0,1.944-1.891,1.966,1.966,0,0,0-1.981-1.936,1.907,1.907,0,0,0-1.895,1.937" transform="translate(-48.428 -48.629)" fill="#f7fcff"/>
    </g>
  </g>
</svg>
