<svg xmlns="http://www.w3.org/2000/svg" xmlns:xlink="http://www.w3.org/1999/xlink" width="111" height="112" viewBox="0 0 111 112">
  <defs>
    <clipPath id="clip-path">
      <rect id="Rectángulo_42" data-name="Rectángulo 42" width="59.999" height="59.848" fill="#f7fcff"/>
    </clipPath>
  </defs>
  <g id="Grupo_137" data-name="Grupo 137" transform="translate(-728 -1503)">
    <ellipse id="Elipse_11" data-name="Elipse 11" cx="55.5" cy="56" rx="55.5" ry="56" transform="translate(728 1503)" fill="#5fc4f3"/>
    <g id="Grupo_51" data-name="Grupo 51" transform="translate(754 1529)">
      <g id="Grupo_50" data-name="Grupo 50" clip-path="url(#clip-path)">
        <path id="Trazado_30" data-name="Trazado 30" d="M4.984,13.216c-.524,0-.96.017-1.395,0A3.666,3.666,0,0,1,.034,9.661q-.069-3.1,0-6.2a3.494,3.494,0,0,1,3.4-3.44C3.728,0,4.014,0,4.3,0Q30,0,55.706.005a6.9,6.9,0,0,1,1.567.137A3.387,3.387,0,0,1,59.96,3.4q.071,3.067.008,6.136a3.555,3.555,0,0,1-3.527,3.545c-.436.021-.874,0-1.424,0v.934q0,21.909,0,43.818a6.994,6.994,0,0,1-.04.921A1.1,1.1,0,0,1,53.8,59.838c-.219.012-.44.009-.66.009H6.82a6.413,6.413,0,0,1-.791-.023,1.027,1.027,0,0,1-.976-.909,6.838,6.838,0,0,1-.066-1.05q0-21.81,0-43.62Zm47.47,44V13.145H38.128a8.249,8.249,0,0,1-12.442,5.63,8.411,8.411,0,0,1-3.835-5.65H7.547V57.193H21v-.84q0-7.293,0-14.586C21,40.312,21.318,40,22.795,40H37.249C38.662,40,39,40.337,39,41.744Q39,49.07,39,56.4v.815ZM38.145,10.605H55.674a5.265,5.265,0,0,0,.659-.019,1.173,1.173,0,0,0,1.15-1.15c.035-1.955.023-3.912-.008-5.867a1.066,1.066,0,0,0-1.059-1.061,7,7,0,0,0-.921-.041q-25.47,0-50.939,0c-.2,0-.4-.007-.594,0-1.011.05-1.436.476-1.441,1.475q-.013,2.507,0,5.015c0,1.12.385,1.513,1.5,1.514,5.763.006,11.525,0,17.288.011.425,0,.58-.109.682-.552A8.187,8.187,0,0,1,33.49,4.4a8.441,8.441,0,0,1,4.654,6.2M28.7,42.559H23.563V57.23H28.7Zm7.747,0H31.319V57.23h5.127Zm-.714-30.739a5.732,5.732,0,0,0-11.464.009,5.733,5.733,0,0,0,11.464-.009" transform="translate(0 0)" fill="#f7fcff"/>
        <path id="Trazado_31" data-name="Trazado 31" d="M147.242,93.2c0,1.517.011,3.034,0,4.55-.011,1.2-.4,1.579-1.593,1.583q-4.353.012-8.705,0c-1.138,0-1.569-.419-1.574-1.547q-.02-4.584,0-9.167c0-1.112.462-1.536,1.585-1.538q4.385,0,8.771,0c1.131,0,1.5.358,1.515,1.5.018,1.539,0,3.078,0,4.616M144.69,89.62h-6.776v7.172h6.776Z" transform="translate(-99.618 -64.086)" fill="#f7fcff"/>
        <path id="Trazado_32" data-name="Trazado 32" d="M47.368,93.211c0-1.516-.007-3.032,0-4.549.007-1.236.348-1.582,1.558-1.583q4.383-.006,8.768,0c1.143,0,1.545.39,1.549,1.547q.017,4.548,0,9.1c0,1.2-.425,1.606-1.647,1.608q-4.285.008-8.57,0c-1.285,0-1.652-.366-1.659-1.638-.008-1.494,0-2.989,0-4.483m9.322-3.6h-6.8v7.178h6.8Z" transform="translate(-34.86 -64.085)" fill="#f7fcff"/>
        <path id="Trazado_33" data-name="Trazado 33" d="M102.367,31.112c.689,0,1.3-.008,1.91,0A1.184,1.184,0,0,1,105.6,32.34c.011.794-.473,1.249-1.351,1.257-.591.006-1.182,0-1.9,0,0,.733.043,1.427-.01,2.115a1.21,1.21,0,0,1-1.774,1.033,1.185,1.185,0,0,1-.7-1.175c-.009-.633,0-1.266,0-1.973-.678,0-1.288.005-1.9,0-.844-.009-1.325-.445-1.339-1.2a1.19,1.19,0,0,1,1.336-1.28c.609-.009,1.219,0,1.9,0,0-.668-.013-1.257,0-1.845.024-.91.45-1.389,1.224-1.4.8-.015,1.252.473,1.278,1.415.017.587,0,1.174,0,1.833" transform="translate(-71.112 -20.507)" fill="#f7fcff"/>
      </g>
    </g>
  </g>
</svg>
