<svg xmlns="http://www.w3.org/2000/svg" xmlns:xlink="http://www.w3.org/1999/xlink" width="111" height="112" viewBox="0 0 111 112">
  <defs>
    <clipPath id="clip-path">
      <rect id="Rectángulo_41" data-name="Rectángulo 41" width="34.479" height="59.848" fill="#f5f7f9"/>
    </clipPath>
  </defs>
  <g id="Grupo_136" data-name="Grupo 136" transform="translate(-728 -1309)">
    <ellipse id="Elipse_10" data-name="Elipse 10" cx="55.5" cy="56" rx="55.5" ry="56" transform="translate(728 1309)" fill="#5fc4f3"/>
    <g id="Grupo_125" data-name="Grupo 125" transform="translate(766 1335)">
      <g id="Grupo_48" data-name="Grupo 48" clip-path="url(#clip-path)">
        <path id="Trazado_29" data-name="Trazado 29" d="M5.864,7.942c-.8,0-1.5.027-2.2-.005A3.956,3.956,0,0,1,3.694.043C5.776-.012,7.86.017,9.943.016,16.367.014,22.792.043,29.216,0a4.118,4.118,0,0,1,4.077,2.712A3.929,3.929,0,0,1,29.8,7.94c-.675.029-1.353,0-2.1,0-.018.292-.045.522-.045.753q0,10.895.012,21.79a2.349,2.349,0,0,0,.315,1.1c1.736,3.049,3.52,6.07,5.245,9.125a7.985,7.985,0,0,1-.211,8.887,7.515,7.515,0,0,1-5.576,3.442,1.114,1.114,0,0,0-.975.7,10.563,10.563,0,0,1-7.556,5.876A10.8,10.8,0,0,1,6.029,50.677a16.383,16.383,0,0,1-.158-2.49q-.014-19.651-.007-39.3V7.942m19.3,17.343v-.867q0-8.556,0-17.113c0-1.464.376-1.844,1.816-1.846.833,0,1.666.012,2.5-.008a1.8,1.8,0,0,0,.753-.169,1.385,1.385,0,0,0,.742-1.655c-.2-.783-.672-1.107-1.7-1.107q-12.595-.006-25.19,0A1.474,1.474,0,0,0,2.5,3.933,1.443,1.443,0,0,0,4.031,5.451c.832.023,1.666.006,2.5.007,1.462,0,1.833.37,1.833,1.824q0,8.622,0,17.245v.758Zm-.936,27.648a18.077,18.077,0,0,1-1.983-.981A8.43,8.43,0,0,1,20.478,50.5a7.936,7.936,0,0,1-.952-9.624c1.649-2.895,3.238-5.827,5-8.651.9-1.441.51-2.889.633-4.356H8.387c-.009.2-.022.352-.022.5q0,10.264,0,20.529a8.526,8.526,0,0,0,.05,1.182,8.291,8.291,0,0,0,6.967,7.151,8.589,8.589,0,0,0,8.841-4.3m2.129-18.947c-.089.08-.151.115-.182.167-1.618,2.783-3.282,5.541-4.833,8.36a5.473,5.473,0,0,0,1.373,6.843,5.758,5.758,0,0,0,7.171.016,5.554,5.554,0,0,0,1.38-6.845c-.585-1.126-1.247-2.213-1.881-3.313-1-1.738-2.011-3.473-3.029-5.228" transform="translate(0 0)" fill="#f5f7f9"/>
      </g>
    </g>
  </g>
</svg>
