<svg xmlns="http://www.w3.org/2000/svg" xmlns:xlink="http://www.w3.org/1999/xlink" width="111" height="112" viewBox="0 0 111 112">
  <defs>
    <clipPath id="clip-path">
      <rect id="Rectángulo_44" data-name="Rectángulo 44" width="67.775" height="59.848" fill="#f7fcff"/>
    </clipPath>
  </defs>
  <g id="Grupo_139" data-name="Grupo 139" transform="translate(-728 -1876)">
    <ellipse id="Elipse_13" data-name="Elipse 13" cx="55.5" cy="56" rx="55.5" ry="56" transform="translate(728 1876)" fill="#5fc4f3"/>
    <g id="Grupo_55" data-name="Grupo 55" transform="translate(750 1902)">
      <g id="Grupo_54" data-name="Grupo 54" clip-path="url(#clip-path)">
        <path id="Trazado_38" data-name="Trazado 38" d="M37.126,58.7c-.7,0-1.4.029-2.1-.005a32.181,32.181,0,0,0-9.264.967A5.8,5.8,0,0,1,18.513,54.9a5.882,5.882,0,0,1,5.47-6.878c1.076-.044,2.155-.009,3.232-.019a2.688,2.688,0,0,0,2.062-.914Q35.115,40.765,41,34.486A16.187,16.187,0,0,0,45.614,21.51a58.338,58.338,0,0,0-1.464-7.183C43.543,11.6,42.8,8.9,42.283,6.151A4.369,4.369,0,0,1,46.2,1Q51.5.426,56.815.019c2.731-.207,4.5,1.19,5.167,3.943,1.524,6.249,3.056,12.5,4.547,18.752a7.993,7.993,0,0,0,2.876,4.54,8.526,8.526,0,0,1,.134,13.4,11.906,11.906,0,0,1-3.476,1.967,29.228,29.228,0,0,0-11.573,7.726c-1.994,2.117-3.967,4.255-6.014,6.32a6.858,6.858,0,0,1-4.888,2c-2.154.041-4.309.01-6.464.01V58.7M36.7,55.6c2.1,0,4.2-.013,6.3,0a5.055,5.055,0,0,0,3.944-1.7c1.884-2.037,3.8-4.038,5.706-6.057a27.5,27.5,0,0,1,7.039-5.622c1.99-1.055,4.092-1.9,6.159-2.809,3.028-1.326,4.4-3.943,3.612-6.97a6.606,6.606,0,0,0-2.531-3.354,9.9,9.9,0,0,1-3.307-5.5q-2.333-9.527-4.645-19.06c-.284-1.165-.741-1.558-1.853-1.465q-5.19.431-10.374.942a1.525,1.525,0,0,0-1.429,2.108c.632,2.669,1.283,5.333,1.918,8,.84,3.529,1.838,7.022,1.386,10.738a18.051,18.051,0,0,1-3.964,9.9C40.4,39.678,35.9,44.4,31.482,49.186a5.39,5.39,0,0,1-4.247,1.808c-.888-.022-1.778-.018-2.666,0a2.975,2.975,0,0,0-2.578,1.253,2.841,2.841,0,0,0,0,3.262,2.808,2.808,0,0,0,3.2,1.113,27.218,27.218,0,0,1,9.329-1.033c.725.036,1.454.005,2.181.005" transform="translate(-12.465 0.001)" fill="#f7fcff"/>
        <path id="Trazado_39" data-name="Trazado 39" d="M7.056,99c-.934.772-1.791,1.493-2.661,2.2-1.257,1.017-2.429.618-2.818-.953Q.841,97.269.114,94.292c-.325-1.332.047-2.207,1.017-2.418.993-.216,1.658.357,1.986,1.723.295,1.227.581,2.457.9,3.807.913-.77,1.766-1.486,2.616-2.206,1.266-1.074,2.505-.714,2.907.874.521,2.058,1.043,4.118,1.48,6.194a2.179,2.179,0,0,1-.234,1.587,1.706,1.706,0,0,1-1.434.567,1.968,1.968,0,0,1-1.176-1.129c-.42-1.213-.647-2.494-.954-3.747-.036-.148-.088-.292-.165-.546" transform="translate(0 -62.144)" fill="#f7fcff"/>
        <path id="Trazado_40" data-name="Trazado 40" d="M56.748,44.465c-.929.762-1.754,1.448-2.588,2.122-1.4,1.133-2.551.765-2.976-.961q-.741-3.014-1.453-6.034a3.4,3.4,0,0,1-.1-.959,1.436,1.436,0,0,1,1.333-1.287,1.319,1.319,0,0,1,1.551.987c.39,1.341.7,2.7,1.042,4.059.032.123.076.244.157.5.936-.758,1.8-1.459,2.668-2.163,1.311-1.066,2.442-.687,2.847.969q.756,3.093,1.487,6.192C60.977,49,60.6,49.767,59.693,50c-.922.237-1.678-.3-1.958-1.422-.332-1.329-.64-2.663-.987-4.113" transform="translate(-33.582 -25.264)" fill="#f7fcff"/>
        <path id="Trazado_41" data-name="Trazado 41" d="M179.228,23.1c-.358,1.515-.658,2.873-1,4.219a1.5,1.5,0,0,1-2.257,1.131,1.4,1.4,0,0,1-.723-1.643c.527-2.305,1.051-4.613,1.66-6.9a1.476,1.476,0,0,1,2.49-.768c.954.739,1.862,1.538,2.894,2.4.334-1.372.6-2.669.98-3.934a2.957,2.957,0,0,1,.858-1.374,1.21,1.21,0,0,1,1.57.065,1.452,1.452,0,0,1,.6,1.558q-.639,2.707-1.285,5.412c-.112.47-.205.947-.346,1.409a1.535,1.535,0,0,1-2.593.816c-.924-.734-1.807-1.519-2.839-2.392" transform="translate(-118.561 -10.811)" fill="#f7fcff"/>
        <path id="Trazado_42" data-name="Trazado 42" d="M136.652,59.616c-.2.776-.339,1.572-.609,2.322a1.489,1.489,0,0,1-1.943.968,1.567,1.567,0,0,1-.926-1.978c.584-2.117.215-3.079-1.6-4.179A1.526,1.526,0,1,1,133,54.055a6.451,6.451,0,0,1,3.65,5.561" transform="translate(-88.446 -36.453)" fill="#f7fcff"/>
      </g>
    </g>
  </g>
</svg>
