<?xml version="1.0" encoding="utf-8"?>
<!-- Generator: Adobe Illustrator 26.3.1, SVG Export Plug-In . SVG Version: 6.00 Build 0)  -->
<svg version="1.1" id="Capa_1" xmlns="http://www.w3.org/2000/svg" xmlns:xlink="http://www.w3.org/1999/xlink" x="0px" y="0px"
	 viewBox="0 0 640.2 98.5" style="enable-background:new 0 0 640.2 98.5;" xml:space="preserve">
<style type="text/css">
	.st0{enable-background:new    ;}
	.st1{fill:#496582;}
	.st2{clip-path:url(#SVGID_00000005949501428643172630000006506116266765464498_);}
	.st3{clip-path:url(#SVGID_00000162336160891090146250000012713577852162996902_);}
	.st4{clip-path:url(#SVGID_00000058575322793817066110000008512873233651404696_);}
	.st5{clip-path:url(#SVGID_00000160181162520003615990000011695409035908518809_);}
	.st6{clip-path:url(#SVGID_00000057132413928514867380000016723276272046089869_);}
	.st7{clip-path:url(#SVGID_00000051379487420925087510000001429630988224167302_);}
</style>
<g id="Grupo_114" transform="translate(-85.686 -25.155)">
	<g class="st0">
		<path class="st1" d="M260.9,91.3h-24.8c-3.5,0-6.5-2.6-6.5-6.1c0-2.8,1.1-4.9,3.1-7.2l26.1-30.4c2.5-2.9,4.4-4.5,8.3-4.5
			c3.5,0,6.4,2.8,6.4,6.3v31.1h3.2c3,0,5.4,2.4,5.4,5.4c0,3-2.4,5.3-5.4,5.3h-3.2v7.2c0,3.5-2.8,6.3-6.4,6.3s-6.3-2.8-6.3-6.3V91.3z
			 M260.9,80.6V61.8l-16,18.7H260.9z"/>
		<path class="st1" d="M298.2,90c4.3,0,7.5,3.2,7.5,7.3v0.2c0,4.1-3.2,7.3-7.5,7.3s-7.5-3.2-7.5-7.3v-0.2
			C290.7,93.2,293.9,90,298.2,90z"/>
		<path class="st1" d="M314.4,87.8v-0.2c0-7.3,3.4-11.6,9.7-14.5c-4.6-2.8-7.7-6.7-7.7-13.2v-0.2c0-9.2,8.4-16.5,21.2-16.5
			c12.7,0,21.2,7.2,21.2,16.5v0.2c0,6.4-3,10.3-7.7,13.2c6.1,3.2,9.7,7.1,9.7,14.2v0.2c0,11.2-9.9,17.7-23.2,17.7
			C324.3,105.2,314.4,98.3,314.4,87.8z M348,86.7v-0.2c0-4.6-4.4-7.4-10.4-7.4c-6,0-10.4,2.8-10.4,7.4v0.2c0,4.1,3.9,7.5,10.4,7.5
			C344.1,94.2,348,91,348,86.7z M346.2,61.4v-0.2c0-3.7-3.2-7.1-8.6-7.1s-8.6,3.3-8.6,7v0.2c0,4.2,3.4,7.4,8.6,7.4
			C342.9,68.7,346.2,65.6,346.2,61.4z"/>
	</g>
	<g id="Grupo_10" transform="translate(826.686 2020.041)">
		<g id="Grupo_5" transform="translate(0)">
			<g>
				<defs>
					<rect id="SVGID_1_" x="-431.9" y="-1955.5" width="56.9" height="53.6"/>
				</defs>
				<clipPath id="SVGID_00000075882703139880856840000000170464706310760626_">
					<use xlink:href="#SVGID_1_"  style="overflow:visible;"/>
				</clipPath>
				<g id="Grupo_4" style="clip-path:url(#SVGID_00000075882703139880856840000000170464706310760626_);">
					<path id="Trazado_1" class="st1" d="M-377.8-1948.8c-4.8-7-14.4-8.8-21.4-4c-1.4,1-2.7,2.2-3.7,3.6c-0.2,0.2-0.3,0.5-0.5,0.7
						c-0.1,0-0.1-0.1-0.1-0.1c-0.1-0.1-0.1-0.1-0.2-0.2c-3.7-5-8.6-7.3-14.7-6.5c-6.1,0.8-10.3,4.3-12.5,10
						c-1.7,4.4-1.1,8.8,0.5,13.1c1.4,3.6,3.7,6.7,6.5,9.3c2.7,2.6,5.5,5.1,8.3,7.6c1,0.9,2,1.8,2.9,2.7c2.3,2.2,4.5,4.5,6.4,7
						c1,1.2,1.9,2.5,2.8,3.8c0.5-0.7,0.9-1.4,1.4-2.1c3.1-4.3,6.7-8.3,10.7-11.7c3-2.8,6.1-5.5,9-8.4c3.9-3.9,6.6-8.4,7.1-14.1
						C-374.6-1941.9-375.6-1945.7-377.8-1948.8 M-387-1930c0.2,0.2,0.4,0.5,0.5,0.8C-386.7-1929.5-386.9-1929.7-387-1930"/>
				</g>
			</g>
		</g>
		<g id="Grupo_6" transform="translate(68.541)">
			<g>
				<defs>
					<rect id="SVGID_00000165941797428088266740000013552532724114416031_" x="-431.9" y="-1955.5" width="56.9" height="53.6"/>
				</defs>
				<clipPath id="SVGID_00000072271614590224584560000016406627948665624213_">
					<use xlink:href="#SVGID_00000165941797428088266740000013552532724114416031_"  style="overflow:visible;"/>
				</clipPath>
				<g id="Grupo_4-2" style="clip-path:url(#SVGID_00000072271614590224584560000016406627948665624213_);">
					<path id="Trazado_1-2" class="st1" d="M-377.8-1948.8c-4.8-7-14.4-8.8-21.4-4c-1.4,1-2.7,2.2-3.7,3.6c-0.2,0.2-0.3,0.5-0.5,0.7
						c-0.1,0-0.1-0.1-0.1-0.1c-0.1-0.1-0.1-0.1-0.2-0.2c-3.7-5-8.6-7.3-14.7-6.5c-6.1,0.8-10.3,4.3-12.5,10
						c-1.7,4.4-1.1,8.8,0.5,13.1c1.4,3.6,3.7,6.7,6.5,9.3c2.7,2.6,5.5,5.1,8.3,7.6c1,0.9,2,1.8,2.9,2.7c2.3,2.2,4.5,4.5,6.4,7
						c1,1.2,1.9,2.5,2.8,3.8c0.5-0.7,0.9-1.4,1.4-2.1c3.1-4.3,6.7-8.3,10.7-11.7c3-2.8,6.1-5.5,9-8.4c3.9-3.9,6.6-8.4,7.1-14.1
						C-374.6-1941.9-375.6-1945.7-377.8-1948.8 M-387-1930c0.2,0.2,0.4,0.5,0.5,0.8C-386.7-1929.5-386.9-1929.7-387-1930"/>
				</g>
			</g>
		</g>
		<g id="Grupo_7" transform="translate(137.082)">
			<g>
				<defs>
					<rect id="SVGID_00000000181255704463833380000003811138731891725450_" x="-431.9" y="-1955.5" width="56.9" height="53.6"/>
				</defs>
				<clipPath id="SVGID_00000022554341348142023790000017198841364637675703_">
					<use xlink:href="#SVGID_00000000181255704463833380000003811138731891725450_"  style="overflow:visible;"/>
				</clipPath>
				<g id="Grupo_4-3" style="clip-path:url(#SVGID_00000022554341348142023790000017198841364637675703_);">
					<path id="Trazado_1-3" class="st1" d="M-377.8-1948.8c-4.8-7-14.4-8.8-21.4-4c-1.4,1-2.7,2.2-3.7,3.6c-0.2,0.2-0.3,0.5-0.5,0.7
						c-0.1,0-0.1-0.1-0.1-0.1c-0.1-0.1-0.1-0.1-0.2-0.2c-3.7-5-8.6-7.3-14.7-6.5c-6.1,0.8-10.3,4.3-12.5,10
						c-1.7,4.4-1.1,8.8,0.5,13.1c1.4,3.6,3.7,6.7,6.5,9.3c2.7,2.6,5.5,5.1,8.3,7.6c1,0.9,2,1.8,2.9,2.7c2.3,2.2,4.5,4.5,6.4,7
						c1,1.2,1.9,2.5,2.8,3.8c0.5-0.7,0.9-1.4,1.4-2.1c3.1-4.3,6.7-8.3,10.7-11.7c3-2.8,6.1-5.5,9-8.4c3.9-3.9,6.6-8.4,7.1-14.1
						C-374.6-1941.9-375.6-1945.7-377.8-1948.8 M-387-1930c0.2,0.2,0.4,0.5,0.5,0.8C-386.7-1929.5-386.9-1929.7-387-1930"/>
				</g>
			</g>
		</g>
		<g id="Grupo_8" transform="translate(205.623)">
			<g>
				<defs>
					<rect id="SVGID_00000093864117643812878510000002038056266868627331_" x="-431.9" y="-1955.5" width="56.9" height="53.6"/>
				</defs>
				<clipPath id="SVGID_00000037664780382836177120000005888316803874535058_">
					<use xlink:href="#SVGID_00000093864117643812878510000002038056266868627331_"  style="overflow:visible;"/>
				</clipPath>
				<g id="Grupo_4-4" style="clip-path:url(#SVGID_00000037664780382836177120000005888316803874535058_);">
					<path id="Trazado_1-4" class="st1" d="M-377.8-1948.8c-4.8-7-14.4-8.8-21.4-4c-1.4,1-2.7,2.2-3.7,3.6c-0.2,0.2-0.3,0.5-0.5,0.7
						c-0.1,0-0.1-0.1-0.1-0.1c-0.1-0.1-0.1-0.1-0.2-0.2c-3.7-5-8.6-7.3-14.7-6.5c-6.1,0.8-10.3,4.3-12.5,10
						c-1.7,4.4-1.1,8.8,0.5,13.1c1.4,3.6,3.7,6.7,6.5,9.3c2.7,2.6,5.5,5.1,8.3,7.6c1,0.9,2,1.8,2.9,2.7c2.3,2.2,4.5,4.5,6.4,7
						c1,1.2,1.9,2.5,2.8,3.8c0.5-0.7,0.9-1.4,1.4-2.1c3.1-4.3,6.7-8.3,10.7-11.7c3-2.8,6.1-5.5,9-8.4c3.9-3.9,6.6-8.4,7.1-14.1
						C-374.6-1941.9-375.6-1945.7-377.8-1948.8 M-387-1930c0.2,0.2,0.4,0.5,0.5,0.8C-386.7-1929.5-386.9-1929.7-387-1930"/>
				</g>
			</g>
		</g>
		<g id="Grupo_9" transform="translate(274.164)">
			<g>
				<defs>
					<rect id="SVGID_00000147198849004701303610000013764670659833930162_" x="-431.9" y="-1955.5" width="56.9" height="53.6"/>
				</defs>
				<clipPath id="SVGID_00000115475217481544116330000009718939115135661750_">
					<use xlink:href="#SVGID_00000147198849004701303610000013764670659833930162_"  style="overflow:visible;"/>
				</clipPath>
				<g id="Grupo_4-5" style="clip-path:url(#SVGID_00000115475217481544116330000009718939115135661750_);">
					<path id="Trazado_1-5" class="st1" d="M-377.8-1948.8c-4.8-7-14.4-8.8-21.4-4c-1.4,1-2.7,2.2-3.7,3.6c-0.2,0.2-0.3,0.5-0.5,0.7
						c-0.1,0-0.1-0.1-0.1-0.1c-0.1-0.1-0.1-0.1-0.2-0.2c-3.7-5-8.6-7.3-14.7-6.5c-6.1,0.8-10.3,4.3-12.5,10
						c-1.7,4.4-1.1,8.8,0.5,13.1c1.4,3.6,3.7,6.7,6.5,9.3c2.7,2.6,5.5,5.1,8.3,7.6c1,0.9,2,1.8,2.9,2.7c2.3,2.2,4.5,4.5,6.4,7
						c1,1.2,1.9,2.5,2.8,3.8c0.5-0.7,0.9-1.4,1.4-2.1c3.1-4.3,6.7-8.3,10.7-11.7c3-2.8,6.1-5.5,9-8.4c3.9-3.9,6.6-8.4,7.1-14.1
						C-374.6-1941.9-375.6-1945.7-377.8-1948.8 M-387-1930c0.2,0.2,0.4,0.5,0.5,0.8C-386.7-1929.5-386.9-1929.7-387-1930"/>
				</g>
			</g>
		</g>
	</g>
	<g class="st0">
		<path class="st1" d="M396.9,35.1c0-1.1,0.8-1.9,1.9-1.9h9.8c1,0,1.7,0.8,1.7,1.8s-0.8,1.8-1.7,1.8h-7.9v3.7h6.7
			c1,0,1.7,0.8,1.7,1.8c0,1-0.8,1.7-1.7,1.7h-6.7v5c0,1.1-0.9,1.9-1.9,1.9s-1.9-0.9-1.9-1.9V35.1z"/>
		<path class="st1" d="M411.5,46.8L411.5,46.8c0-3,2.2-4.3,5.4-4.3c1.3,0,2.3,0.2,3.3,0.5v-0.2c0-1.6-1-2.5-2.9-2.5
			c-1,0-1.9,0.2-2.6,0.4c-0.2,0.1-0.4,0.1-0.6,0.1c-0.9,0-1.6-0.7-1.6-1.5c0-0.7,0.4-1.2,1-1.5c1.2-0.5,2.5-0.7,4.3-0.7
			c2.1,0,3.6,0.5,4.5,1.5c1,1,1.5,2.5,1.5,4.3V49c0,1-0.8,1.8-1.8,1.8c-1.1,0-1.8-0.8-1.8-1.6v0c-0.9,1-2.2,1.7-4,1.7
			C413.5,50.9,411.5,49.4,411.5,46.8z M420.2,45.9v-0.7c-0.6-0.3-1.5-0.5-2.4-0.5c-1.6,0-2.6,0.6-2.6,1.8v0c0,1,0.9,1.6,2.1,1.6
			C419,48.3,420.2,47.3,420.2,45.9z"/>
		<path class="st1" d="M426.4,44L426.4,44c0-3.9,2.9-7,7-7c2,0,3.4,0.5,4.6,1.5c0.2,0.2,0.6,0.7,0.6,1.3c0,1-0.8,1.7-1.7,1.7
			c-0.5,0-0.9-0.2-1.1-0.4c-0.7-0.5-1.4-0.8-2.4-0.8c-1.9,0-3.2,1.7-3.2,3.6v0c0,2,1.3,3.7,3.4,3.7c1,0,1.8-0.3,2.5-0.9
			c0.2-0.1,0.6-0.3,1-0.3c0.9,0,1.6,0.7,1.6,1.6c0,0.5-0.2,0.9-0.5,1.2c-1.1,1-2.5,1.7-4.7,1.7C429.4,50.9,426.4,47.8,426.4,44z"/>
		<path class="st1" d="M447.3,50.9c-4,0-7-2.8-7-6.9V44c0-3.8,2.7-7,6.6-7c4.5,0,6.4,3.7,6.4,6.4c0,1.1-0.8,1.8-1.8,1.8h-7.5
			c0.4,1.7,1.6,2.6,3.3,2.6c1,0,1.9-0.3,2.7-0.9c0.3-0.2,0.5-0.3,0.9-0.3c0.8,0,1.5,0.7,1.5,1.5c0,0.5-0.2,0.9-0.5,1.1
			C450.8,50.3,449.3,50.9,447.3,50.9z M449.8,42.9c-0.2-1.7-1.2-2.8-2.8-2.8c-1.6,0-2.6,1.1-2.9,2.8H449.8z"/>
		<path class="st1" d="M456.3,34.2c0-1,0.8-1.9,1.9-1.9s1.9,0.8,1.9,1.9v5c0.9-1.2,2.2-2.2,4.2-2.2c3.1,0,6.1,2.4,6.1,6.9v0
			c0,4.5-2.9,6.9-6.1,6.9c-2,0-3.3-0.9-4.2-2v0c0,1-0.8,1.9-1.9,1.9s-1.9-0.9-1.9-1.9V34.2z M466.6,44L466.6,44
			c0-2.3-1.5-3.7-3.3-3.7s-3.2,1.5-3.2,3.7v0c0,2.2,1.5,3.7,3.2,3.7S466.6,46.2,466.6,44z"/>
		<path class="st1" d="M472.5,44L472.5,44c0-3.9,3.1-7,7.3-7c4.1,0,7.2,3.1,7.2,6.9v0c0,3.8-3.1,7-7.3,7
			C475.6,50.9,472.5,47.9,472.5,44z M483.3,44L483.3,44c0-2-1.4-3.7-3.5-3.7c-2.2,0-3.5,1.7-3.5,3.6v0c0,2,1.4,3.7,3.5,3.7
			C482,47.7,483.3,46,483.3,44z"/>
		<path class="st1" d="M489.1,44L489.1,44c0-3.9,3.1-7,7.3-7c4.1,0,7.2,3.1,7.2,6.9v0c0,3.8-3.1,7-7.3,7
			C492.2,50.9,489.1,47.9,489.1,44z M499.9,44L499.9,44c0-2-1.4-3.7-3.5-3.7c-2.2,0-3.5,1.7-3.5,3.6v0c0,2,1.4,3.7,3.5,3.7
			C498.6,47.7,499.9,46,499.9,44z"/>
		<path class="st1" d="M506.4,34.2c0-1,0.8-1.9,1.9-1.9s1.9,0.8,1.9,1.9v8.3l4.7-4.5c0.5-0.5,1-0.8,1.7-0.8c1,0,1.7,0.8,1.7,1.7
			c0,0.6-0.4,1.1-0.9,1.6l-3,2.6l3.6,4.8c0.3,0.4,0.5,0.8,0.5,1.2c0,1-0.8,1.7-1.8,1.7c-0.8,0-1.2-0.2-1.6-0.9l-3.3-4.6l-1.5,1.4
			v2.2c0,1-0.8,1.9-1.9,1.9s-1.9-0.9-1.9-1.9V34.2z"/>
		<path class="st1" d="M528.6,39c0-1,0.8-1.9,1.9-1.9s1.9,0.8,1.9,1.9v0.6c0.5-1.3,1.4-2.5,2.6-2.5c1.2,0,1.8,0.8,1.8,1.8
			c0,1-0.6,1.6-1.4,1.8c-1.9,0.5-3,1.9-3,4.6v3.5c0,1-0.8,1.9-1.9,1.9s-1.9-0.9-1.9-1.9V39z"/>
		<path class="st1" d="M537.6,46.8L537.6,46.8c0-3,2.2-4.3,5.4-4.3c1.3,0,2.3,0.2,3.3,0.5v-0.2c0-1.6-1-2.5-2.9-2.5
			c-1,0-1.9,0.2-2.6,0.4c-0.2,0.1-0.4,0.1-0.5,0.1c-0.9,0-1.6-0.7-1.6-1.5c0-0.7,0.4-1.2,1-1.5c1.2-0.5,2.5-0.7,4.3-0.7
			c2.1,0,3.6,0.5,4.5,1.5c1,1,1.4,2.5,1.4,4.3V49c0,1-0.8,1.8-1.8,1.8c-1.1,0-1.8-0.8-1.8-1.6v0c-0.9,1-2.2,1.7-4,1.7
			C539.7,50.9,537.6,49.4,537.6,46.8z M546.3,45.9v-0.7c-0.7-0.3-1.5-0.5-2.4-0.5c-1.6,0-2.6,0.6-2.6,1.8v0c0,1,0.8,1.6,2.1,1.6
			C545.1,48.3,546.3,47.3,546.3,45.9z"/>
		<path class="st1" d="M553.1,34.1c0-1.1,0.9-1.8,2.1-1.8c1.2,0,2.1,0.7,2.1,1.8v0c0,1.1-0.9,1.8-2.1,1.8
			C554.1,35.9,553.1,35.2,553.1,34.1L553.1,34.1z M553.4,39c0-1,0.8-1.9,1.9-1.9s1.9,0.8,1.9,1.9v9.9c0,1-0.8,1.9-1.9,1.9
			s-1.9-0.9-1.9-1.9V39z"/>
		<path class="st1" d="M561.4,46.8v-6.3h-0.1c-0.9,0-1.6-0.7-1.6-1.6c0-0.9,0.7-1.6,1.6-1.6h0.1v-1.7c0-1,0.9-1.9,1.9-1.9
			s1.9,0.8,1.9,1.9v1.7h1.7c0.9,0,1.6,0.7,1.6,1.6c0,0.9-0.7,1.6-1.6,1.6h-1.7v5.7c0,0.9,0.4,1.3,1.2,1.3c0.1,0,0.4,0,0.4,0
			c0.9,0,1.6,0.7,1.6,1.6c0,0.7-0.5,1.2-1,1.4c-0.7,0.3-1.3,0.4-2.2,0.4C562.9,50.9,561.4,49.9,561.4,46.8z"/>
		<path class="st1" d="M571.1,34.1c0-1.1,0.9-1.8,2.1-1.8c1.2,0,2.1,0.7,2.1,1.8v0c0,1.1-0.9,1.8-2.1,1.8
			C572,35.9,571.1,35.2,571.1,34.1L571.1,34.1z M571.3,39c0-1,0.8-1.9,1.9-1.9s1.9,0.8,1.9,1.9v9.9c0,1-0.9,1.9-1.9,1.9
			s-1.9-0.9-1.9-1.9V39z"/>
		<path class="st1" d="M578.7,39c0-1,0.8-1.9,1.9-1.9s1.9,0.8,1.9,1.9v0.2c0.9-1.1,2-2.1,3.9-2.1c2.9,0,4.5,1.9,4.5,5v6.9
			c0,1-0.9,1.9-1.9,1.9c-1,0-1.9-0.9-1.9-1.9v-5.7c0-1.8-0.8-2.7-2.3-2.7c-1.5,0-2.4,0.9-2.4,2.7v5.7c0,1-0.8,1.9-1.9,1.9
			s-1.9-0.9-1.9-1.9V39z"/>
		<path class="st1" d="M595.3,53.8c-0.7-0.2-1.1-0.8-1.1-1.5c0-0.8,0.7-1.5,1.5-1.5c0.2,0,0.5,0.1,0.6,0.1c1.1,0.5,2.3,0.8,3.7,0.8
			c2.6,0,3.8-1.2,3.8-3.6v-0.7c-1.1,1.3-2.3,2.2-4.4,2.2c-3.1,0-5.9-2.3-5.9-6.2v0c0-4,2.9-6.2,5.9-6.2c2.1,0,3.3,0.9,4.3,2v0
			c0-1,0.9-1.9,1.9-1.9c1,0,1.9,0.8,1.9,1.9v8.6c0,2.4-0.6,4.1-1.7,5.3c-1.2,1.2-3.2,1.8-5.8,1.8C598.5,54.7,596.9,54.4,595.3,53.8z
			 M604,43.3L604,43.3c0-1.9-1.4-3.1-3.3-3.1s-3.2,1.3-3.2,3.1v0c0,1.8,1.4,3.1,3.2,3.1S604,45.1,604,43.3z"/>
	</g>
</g>
<g id="Grupo_119" transform="translate(431.9 1955.508)">
	<g>
		<defs>
			<rect id="SVGID_00000062193801937316452800000012872749257823743892_" x="-431.9" y="-1955.5" width="98.4" height="98.5"/>
		</defs>
		<clipPath id="SVGID_00000143585590567749498340000012252760744148509317_">
			<use xlink:href="#SVGID_00000062193801937316452800000012872749257823743892_"  style="overflow:visible;"/>
		</clipPath>
		
			<g id="Grupo_118" transform="translate(0 0)" style="clip-path:url(#SVGID_00000143585590567749498340000012252760744148509317_);">
			<path id="Trazado_62" class="st1" d="M-431.9-1903.8v-4.8c0.3-2,0.4-4,0.8-6c5.5-33.1,42.5-51.1,72-34.9
				c23.8,13,32.7,42.9,19.7,66.7c-7.3,13.4-20.5,22.7-35.6,25.1c-1.8,0.3-3.5,0.5-5.3,0.7h-4.5c-0.3-0.1-0.5-0.1-0.8-0.2
				c-2-0.2-4-0.4-6-0.7c-20-3.4-36.6-20.4-39.5-40.6C-431.4-1900.3-431.7-1902.1-431.9-1903.8 M-392.3-1906.4v36.8h15.2v-36.8
				c3.1,0,6,0,9,0c0.9,0,1.4-0.1,1.4-1.2c0.1-1.5,0.4-3.1,0.6-4.6c0.2-2.2,0.4-4.3,0.6-6.7h-11.6c0-1.8,0.1-3.5,0-5.2
				c-0.3-5.8,1.1-6.5,6.3-6.3c1.7,0.1,3.5,0,5.3,0v-12.7c-0.1-0.1-0.3-0.1-0.4-0.1c-4.8,0.1-9.5-0.1-14.3,0.2
				c-7.5,0.6-12,5.7-12.1,13.2c0,3.2,0,6.4,0,9.5v1.4h-7.4v12.3H-392.3z"/>
		</g>
	</g>
</g>
</svg>
