<svg xmlns="http://www.w3.org/2000/svg" xmlns:xlink="http://www.w3.org/1999/xlink" width="183" height="185" viewBox="0 0 183 185">
  <defs>
    <clipPath id="clip-path">
      <rect id="Rectángulo_47" data-name="Rectángulo 47" width="118.964" height="113.799" fill="#fff"/>
    </clipPath>
  </defs>
  <g id="Grupo_129" data-name="Grupo 129" transform="translate(-110 -1616)">
    <g id="Grupo_127" data-name="Grupo 127" transform="translate(-337 -31)">
      <ellipse id="Elipse_14" data-name="Elipse 14" cx="91.5" cy="92.5" rx="91.5" ry="92.5" transform="translate(447 1647)" fill="#5fc4f3"/>
    </g>
    <g id="Grupo_128" data-name="Grupo 128" transform="translate(142 1656.347)">
      <g id="Grupo_60" data-name="Grupo 60" transform="translate(7)" clip-path="url(#clip-path)">
        <path id="Trazado_46" data-name="Trazado 46" d="M124.281,49.5c-.616-2.883-1.435-5.669-1.773-8.511a32.142,32.142,0,0,1,4.467-20.629c1.093-1.848,2.687-1.842,3.776.044a55.848,55.848,0,0,1,2.852,5.514c.823,1.881,1.42,3.861,2.118,5.8a40.623,40.623,0,0,1,2.929-2.82c2.123-1.688,4.259-3.38,6.526-4.863,2.117-1.384,3.63-.565,3.474,1.97-.219,3.557-.8,7.092-1.243,10.635a10.761,10.761,0,0,1-.382,1.425c2.384-.475,4.677-1.018,7-1.366a37.22,37.22,0,0,1,5.413-.395c2.28-.006,2.969,1.356,1.85,3.34-5.111,9.062-12.56,15-22.856,17.146a1.63,1.63,0,0,0-.365.188c.382,1.313.846,2.6,1.123,3.928a12.573,12.573,0,0,1-2.006,10Q120.552,95.089,103.841,119.2a7.723,7.723,0,0,1-7.875,3.644,7.634,7.634,0,0,1-6.448-4.941,6.383,6.383,0,0,1-.051-5.032C93.224,103.92,96.9,94.929,100.719,86c4.043-9.444,8.224-18.829,12.34-28.242a13.32,13.32,0,0,1,10.131-8c.337-.07.678-.126,1.012-.2.074-.017.132-.1.078-.057m2.683,29.812c2.581-3.82,5.207-7.514,7.594-11.356a9.348,9.348,0,0,0,1.154-4.177,10.068,10.068,0,0,0-19.273-4.563c-2.208,5.016-4.371,10.051-6.552,15.078-.339.78-.67,1.563-1.029,2.4.581.335,1.06.616,1.543.891.974.553,2,1.035,2.91,1.675a1.67,1.67,0,0,1,.734,2.335,1.82,1.82,0,0,1-2.549.8,14.534,14.534,0,0,1-1.7-.931c-.774-.442-1.544-.892-2.42-1.4L100.1,96.844c1.055.582,2.022,1.06,2.93,1.632a1.875,1.875,0,0,1,.67,2.6,1.637,1.637,0,0,1-2.352.616c-.89-.407-1.758-.861-2.706-1.33l-2.056,4.7c-1.141,2.609-2.332,5.2-3.41,7.832-1.234,3.019.279,5.917,3.229,6.3,2.1.274,3.523-.781,4.644-2.434q4.686-6.912,9.406-13.8c1.782-2.588,3.627-5.133,5.5-7.775-.9-.51-1.732-.963-2.544-1.441a1.987,1.987,0,0,1-1.038-2.7c.529-.976,1.557-1.19,2.825-.546.949.483,1.875,1.013,2.866,1.552l6.718-9.647c-1.969-1.111-3.792-2.091-5.557-3.166A2.557,2.557,0,0,1,118,77.872a2.031,2.031,0,0,1,.609-1.767,2.874,2.874,0,0,1,2.256-.112c2.024.956,3.947,2.127,6.1,3.319m17.965-50.737C137.3,34.1,132.878,41.121,131.952,50.217a1.274,1.274,0,0,0,.51.991,1.059,1.059,0,0,0,.979-.2,66.19,66.19,0,0,0,6.175-6.409c3.486-4.593,4.952-9.975,5.313-16.019M128.952,24.71c-3.439,7.886-4.094,15.666-.742,23.73a2.624,2.624,0,0,0,.306-.554,33.913,33.913,0,0,1,3.886-11.3,1.394,1.394,0,0,0,.135-.857,34.453,34.453,0,0,0-3.586-11.016m7.761,28.6c8.635-1.516,15.064-5.9,19.917-13.208a33.659,33.659,0,0,0-11.255,2.836,1.956,1.956,0,0,0-.762.82,31.813,31.813,0,0,1-7.166,8.752,10.219,10.219,0,0,0-.734.8" transform="translate(-42.848 -9.142)" fill="#fff"/>
        <path id="Trazado_47" data-name="Trazado 47" d="M63.6,48.207c-1.744-3.772-3.306-7.424-5.1-10.959A9.268,9.268,0,0,0,45.96,33.231c-4.992,2.732-6.692,8.776-3.624,13.3,3.388,5,7,9.846,10.622,14.9,1.019-.621,1.99-1.223,2.972-1.807,1.808-1.075,2.931-1.027,3.623.139.672,1.133.242,1.937-1.658,3.078-.877.527-1.76,1.044-2.725,1.616L62.5,74.634c.126.175.259.345.382.523.87,1.248.847,2.263-.068,2.965-.9.689-1.939.5-2.863-.757-3.034-4.144-5.991-8.344-9-12.509-3.512-4.866-7-9.75-10.58-14.564-3.252-4.371-4.14-9.014-1.925-14.282-.55-.128-1.065-.244-1.578-.369a31.33,31.33,0,0,1-20.8-15.805c-.894-1.61,0-3.025,1.933-3.019a34.382,34.382,0,0,1,10.121,1.163c.4.124.821.2,1.343.32-.386-1.8-.865-3.485-1.09-5.206a51.522,51.522,0,0,1-.469-6.441c-.008-2.042,1.423-2.865,3.124-1.7,2.833,1.945,5.5,4.134,8.229,6.23.3.231.558.519.9.838.614-1.817,1.095-3.588,1.81-5.26a49.457,49.457,0,0,1,2.792-5.537c.989-1.687,2.5-1.6,3.506.061a30.581,30.581,0,0,1,3.317,25.733c-.134.447-.23.907-.344,1.363,1.45.433,2.87.756,4.214,1.278a12.083,12.083,0,0,1,6.7,6.517c3.107,6.742,6.17,13.5,9.248,20.258a4.632,4.632,0,0,1,.319.846,1.77,1.77,0,0,1-1.08,2.119,1.506,1.506,0,0,1-2.062-.517,15.982,15.982,0,0,1-1.216-2.268c-.725-1.611-1.4-3.243-2.18-5.065-1.421.854-2.719,1.664-4.048,2.419a9.378,9.378,0,0,1-1.988.9,1.734,1.734,0,0,1-1.516-3.062c.982-.695,2.052-1.264,3.087-1.883.922-.552,1.848-1.1,2.889-1.715M32.149,9.883l-.391.293A26.755,26.755,0,0,0,41.4,29.083c.632.536,1.784,1.358,2.15,1.139,1.087-.653.231-1.779,0-2.646-1.357-5.068-4.232-9.314-7.475-13.33-1.228-1.521-2.615-2.912-3.93-4.363M21.013,20.562c4.61,6.467,10.412,10.427,18.128,11.674a2.452,2.452,0,0,0-.295-.441,31.733,31.733,0,0,1-6.891-8.167,1.784,1.784,0,0,0-.739-.669,30.253,30.253,0,0,0-10.2-2.4m25.521-14.6-.412-.1c-.8,2.661-1.662,5.307-2.37,7.992a4.434,4.434,0,0,0-.072,2.871A39.761,39.761,0,0,1,47.5,27.528c2.865-7.495,2.23-14.593-.965-21.565" transform="translate(-7.571 0)" fill="#fff"/>
        <path id="Trazado_48" data-name="Trazado 48" d="M22.034,125.148c.145-2.727.217-5.264.433-7.789.19-2.219.791-2.9,2.122-2.766,1.313.13,1.749.986,1.622,3.3a9.739,9.739,0,0,1,7.042-1.631c2.082.258,2.873,1.083,2.909,3.207.021,1.2-.137,2.4-.217,3.635a20.337,20.337,0,0,1,2.68.017,10.421,10.421,0,0,1,8.783,6.918c2.008,4.962,1.813,10.055.706,15.155-1.332,6.135-3.768,11.749-8.225,16.311-3.493,3.577-7.621,5.131-12.583,3.622a9.883,9.883,0,0,0-6.3.094c-3.538,1.176-6.829,0-9.743-2.125A26.248,26.248,0,0,1,2.379,150.92,30.147,30.147,0,0,1,.708,132.892,12.907,12.907,0,0,1,5.6,124.9a9.051,9.051,0,0,1,7.862-1.5c2.045.526,4.1,1.035,6.158,1.489a20.54,20.54,0,0,0,2.412.255m23.077,14.485c-.028-3.759-.358-6.919-2.16-9.727A5.7,5.7,0,0,0,36.2,127.1c-1.389.3-2.745.78-4.142,1.026a59.415,59.415,0,0,1-6.244.856c-4.5.306-8.825-.718-13.133-1.885a5.683,5.683,0,0,0-6.81,2.9,13.715,13.715,0,0,0-1.042,2.224,22.875,22.875,0,0,0-.242,13.4c1.406,5.666,4,10.673,8.67,14.361,2.039,1.61,4.4,2.58,7.006,1.6a12.782,12.782,0,0,1,8.728.049,5.243,5.243,0,0,0,3.382-.011,14.74,14.74,0,0,0,4.744-2.983,28.075,28.075,0,0,0,7.993-19M32.261,120.016a4.357,4.357,0,0,0-5.275,5c3.81.24,5.7-1.55,5.275-5" transform="translate(0 -55.179)" fill="#fff"/>
        <path id="Trazado_49" data-name="Trazado 49" d="M121.009,163.558a49.463,49.463,0,0,1,4.537,2.933c.326.259.265,1.492-.068,1.952a2.087,2.087,0,0,1-1.852.676,14.245,14.245,0,0,1-3.708-2.03,2.28,2.28,0,0,1-.422-1.959c.131-.532.85-.92,1.513-1.573" transform="translate(-57.52 -78.766)" fill="#fff"/>
        <path id="Trazado_50" data-name="Trazado 50" d="M11.763,158.844c.044-.546.068-1.236.159-1.918a1.716,1.716,0,0,1,1.949-1.638,1.851,1.851,0,0,1,1.74,2.034c.017,1.073-.08,2.153,0,3.219a15.747,15.747,0,0,0,6.27,11.841c.782.6,1.343,1.4.75,2.323a2.922,2.922,0,0,1-1.674,1.12c-.423.1-1.045-.307-1.47-.628-5.375-4.062-7.487-9.688-7.726-16.352" transform="translate(-5.665 -74.783)" fill="#fff"/>
      </g>
    </g>
  </g>
</svg>
